<?xml version="1.0" encoding="UTF-8" standalone="no"?><!-- Generator: Gravit.io --><svg xmlns="http://www.w3.org/2000/svg" xmlns:xlink="http://www.w3.org/1999/xlink" style="isolation:isolate" viewBox="1 1 305.577 179.595" width="305.577pt" height="179.595pt">
    
    <defs>
        
        <clipPath id="_clipPath_45pmDndJQMqYut5ltUAuCf7FQ7hy2w4p">
        <rect x="1" y="1" width="305.577" height="179.595"/></clipPath>
        
        </defs>
        
        <g clip-path="url(#_clipPath_45pmDndJQMqYut5ltUAuCf7FQ7hy2w4p)"><g><path d=" M 193.777 111.007 C 197.299 115.04 202.26 118.325 208.655 120.859 C 213.727 115.571 216.82 110.099 217.929 104.439 C 215.697 97.902 208.99 92.348 197.805 87.772 C 210.95 57.641 221.703 44.099 231.954 39.606 C 239.038 48.469 256.486 59.083 263.503 60.969 C 276.548 121.064 255.296 166.635 237.337 171.172 C 230.759 166.465 213.33 165.32 207.396 165.989 C 196.769 156.216 191.308 134.843 193.777 111.007 Z " fill="rgb(232,232,232)"/>
        
        <g opacity="0.38">
            
            <path d=" M 238.846 82.516 C 240.555 61.891 238.842 48.064 234.318 42.012 C 243.956 52.306 253.402 58.518 262.652 60.643 C 275.413 111.608 260.739 163.105 237.885 171.623 C 230.687 168.253 217.561 165.832 207.562 164.813 C 215.346 163.832 223.942 151.274 230.74 128.118 L 233.135 119.222 C 237.613 120.299 241.813 124.833 245.166 129.281 C 247.403 126.889 250.289 115.707 253.676 97.119 C 240.781 105.775 231.325 105.843 220.097 105.199 C 218.284 101.517 215.025 97.303 210.319 92.552 C 216.48 95.097 225.843 95.94 237.546 95.316 C 238.287 91.025 238.897 82.55 238.846 82.516 Z " fill="rgb(0,0,0)"/>
        </g>
        
        <path d=" M 250.688 158.429 C 267.671 135.606 271.411 85.541 259.927 62.439 C 252.445 60.472 245.84 57.243 240.111 52.744 C 241.148 61.229 240.285 71.647 238.846 82.516 C 240.519 60.3 237.222 47.638 231.481 44.273 C 223.888 43.401 210.183 62.385 201.484 86.71 L 201.484 86.71 C 212.231 94.871 229.168 96.694 252.298 92.182 C 254.4 91.433 252.258 89.846 249.056 89.505 C 251.765 88.723 254.551 88.994 255.969 90.179 L 255.969 90.179 C 257.05 91.702 256.937 95.042 256.422 96.954 C 255.739 92.792 254.167 93.36 254.338 95.457 C 254.373 105.933 251.157 120.546 245.34 132.882 L 245.34 132.882 C 241.951 126.484 237.007 122.227 233.019 120.365 C 222.197 126.529 205.555 124.856 196.012 115.285 L 196.012 115.285 C 191.755 139.652 199.294 155.176 207.869 158.945 C 214.33 159.34 225.886 144.132 230.74 128.118 C 228.581 137.589 225.056 146.348 221.077 153.249 L 221.077 153.249 C 231.078 155.782 239.188 159.197 246.966 162.771 C 247.912 161.826 248.825 160.802 249.703 159.703 C 244.355 156.422 236.887 153.093 227.308 149.72 L 229.585 149.772 C 238.389 152.457 245.423 155.341 250.688 158.429 Z  M 219.975 155.095 C 219.358 156.101 218.731 157.056 218.099 157.961 L 218.099 157.961 C 229.087 159.67 237.265 162.415 243.65 165.654 C 244.22 165.229 244.779 164.778 245.328 164.3 C 238.901 160.508 230.944 157.205 219.975 155.095 L 219.975 155.095 Z  M 215.352 161.539 C 214.918 162.052 214.484 162.537 214.051 162.995 L 214.051 162.995 C 222.979 163.342 230.727 165.647 238.014 168.809 C 238.427 168.649 238.835 168.476 239.238 168.29 C 234.458 165.649 226.792 163.235 215.352 161.539 L 215.352 161.539 L 215.352 161.539 Z  M 214.512 95.405 C 225.3 97.562 238.01 97.093 252.642 93.995 C 253.369 102.604 245.302 125.651 244.532 126.218 C 243.432 123.856 240.257 118.684 234.217 114.791 C 226.299 120.433 218.873 122.033 212.221 120.812 C 215.547 117.169 218.763 110.708 220.097 105.199 C 227.149 106.391 240.137 106.218 249.626 99.48 C 239.017 106.312 224.679 104.488 220.147 102.518 C 218.605 99.747 216.808 97.394 214.512 95.405 L 214.512 95.405 L 214.512 95.405 L 214.512 95.405 L 214.512 95.405 L 214.512 95.405 L 214.512 95.405 Z  M 206.951 167.989 L 206.951 167.989 C 199.36 160.752 188.824 144.018 192.625 107.069 L 192.625 107.069 L 192.625 107.069 C 196.466 112.323 201.116 116.544 206.398 118.961 C 212.418 114.106 216.383 107.567 217.204 103.182 C 215.187 99.773 209.343 94.615 204.223 92.304 L 204.223 92.304 C 201.341 91.112 198.638 89.674 196.113 87.994 L 196.113 87.994 L 195.895 87.972 C 201.194 66.496 216.767 44.991 233.111 36.674 L 233.111 36.674 L 233.111 36.674 C 234.275 37.691 235.277 38.879 236.135 40.218 C 242.462 47.061 253.796 56.447 265.133 58.515 C 279.065 109.203 258.161 168.677 237.568 173.498 C 227.798 168.871 213.467 167.673 206.951 167.989 L 206.951 167.989 L 206.951 167.989 L 206.951 167.989 Z " fill-rule="evenodd" fill="rgb(0,0,0)"/>
        
        </g><g>
            
            <path d=" M 82.316 58.354 C 71.349 55.257 54.738 45.737 50.714 36.09 L 50.714 36.09 C 53.871 24.301 55.395 14.712 55.284 7.318 C 68.013 2.824 87.542 6.883 113.767 13.831 C 124.498 9.231 131.433 5.325 136.939 7.876 C 140.581 15.404 147.124 24.644 153.795 31.296 C 147.939 44.109 97.555 57.091 82.316 58.354 Z " fill="rgb(232,232,232)"/>
            
            <path d=" M 133.187 42.539 C 130.545 46.208 101.188 57.481 82.733 58.033 C 75.402 56.695 63.712 51.759 56.256 44.61 L 48.424 98.462 L 65.957 171.414 L 129.902 169.516 C 138.574 163.548 140.619 157.442 136.035 151.194 L 107.581 102.556 L 126.005 70.178 C 150.619 61.675 151.841 49.291 133.187 42.539 Z "
            
            fill="rgb(153,0,5)"/>
            
            <path d=" M 113.588 86.105 C 100.943 87.909 89.27 85.183 78.561 77.92 L 70.557 100.679 L 86.695 145.405 C 97.858 139.401 109.47 135.323 121.526 133.166 L 105.835 102.004 L 113.588 86.105 Z " fill="rgb(232,232,232)"/>
            
            <g opacity="0.38">
                
                <path d=" M 120.643 75.849 L 124.904 70.639 C 117.894 69.546 102.943 67.857 96.654 65.569 C 91.321 63.52 91.12 59.069 98.314 57.037 C 101.062 55.986 106.98 55.701 107.581 56.184 C 110.78 56.885 120.761 58.95 131.119 54.985 C 135.739 52.353 138.885 55.413 139.408 58.033 C 141.302 55.586 140.983 46.512 136.035 44.61 C 121.259 50.92 105.938 55.28 90.069 57.684 L 82.316 56.067 L 82.316 34.944 C 105.469 36.394 139.406 14.73 133.172 7.876 C 126.181 8.133 119.093 10.709 113.027 15.6 Q 78.715 30.474 74.646 31.752 C 67.206 30.242 55.003 18.01 55.284 10.198 C 54.555 21.356 51.51 31.446 49.3 36.263 L 56.256 45.928 L 46.608 98.274 L 66.99 171.539 L 130.34 169.336 C 140.448 161.433 139.347 155.466 127.035 151.432 L 108.664 159.263 L 81.667 101.912 C 80.62 101.702 78.582 101.391 75.117 99.419 C 80.252 100.126 84.379 99.006 89.308 99.024 C 86.693 98.865 82.461 97.586 81.667 97.119 L 85.582 75.116 C 95.485 79.767 116.354 82.668 120.643 75.849 Z " fill="rgb(0,0,0)"/>
            </g>
            <path d=" M 58.291 21.607 C 61.981 25.79 66.749 29.099 71.972 31.015 Q 49.204 11.726 70.557 9.542 C 82.538 8.317 97.56 10.158 113.027 15.6 C 149.026 -1.374 123.086 28.369 93.826 33.98 C 107.797 31.657 125.57 22.334 134.759 14.61 C 138.976 20.741 143.875 26.195 148.726 30.257 C 147.723 34.725 114.433 55.296 82.316 56.059 C 69.39 52.878 55.734 42.454 54.076 34.944 C 55.555 30.644 57.158 25.772 58.291 21.607 Z  M 50.714 2.431 L 50.714 2.431 C 66.985 -2.512 95.462 6.427 113.767 12.879 C 121.916 9.318 134.566 1.838 139.933 4.631 C 140.239 4.856 140.468 5.114 140.625 5.4 C 147.705 16.627 154.432 24.602 160.677 29.487 C 158.195 34.152 152.027 38.598 144.153 42.586 C 157.59 57.688 150.502 70.629 131.282 72.133 C 124.664 81.735 119.194 90.98 114.869 99.866 C 115.993 101.157 116.784 102.505 117.262 103.921 C 116.187 104.964 115.344 105.912 114.398 107.196 C 121.199 121.475 131.247 136.674 142.565 152.794 C 146.139 155.899 141.115 172.407 119.591 171.561 L 61.709 172.457 L 61.709 172.457 L 61.709 172.457 L 61.709 172.457 C 57.009 145.485 50.888 120.186 43.342 96.556 C 43.404 81.332 45.341 63.98 49.156 44.494 L 49.156 44.494 C 46.169 41.537 43.778 38.102 42.163 34.066 C 45.555 26.061 50.645 11.038 50.714 2.431 Z  M 60.48 52.428 C 55.87 71.034 53.001 86.379 51.87 98.462 C 58.332 117.957 64.694 140.883 70.953 167.244 C 95.622 169.054 110.698 150.371 125.587 147.54 L 125.587 147.54 L 102.212 102.981 L 102.212 102.981 C 95.796 101.226 88.156 100.495 79.675 100.679 C 87.127 99.495 95.658 98.826 103.749 99.279 C 108.064 88.535 113.018 79.319 118.6 71.622 C 112.032 70.692 104.657 68.74 96.654 65.569 C 126.64 71.44 149.801 64.088 134.627 46.892 C 131.03 48.356 127.275 49.729 123.495 50.996 L 123.495 50.996 C 125.007 52.413 125.699 54.231 125.732 56.067 C 127.633 55.819 129.464 55.456 131.119 54.985 C 121.526 59.544 111.419 58.952 104.264 56.559 C 94.032 59.07 85.584 60.416 82.316 60.188 C 74.474 58.164 66.954 55.744 60.48 52.428 L 60.48 52.428 Z  M 98.314 167.706 L 126.005 167.33 C 133.514 167.172 136.265 156.526 125.409 156.177 C 118.437 155.954 107.516 166.067 98.314 167.706 L 98.314 167.706 L 98.314 167.706 L 98.314 167.706 L 98.314 167.706 Z  M 116.768 53.137 C 116.693 54.218 115.923 55.37 114.67 56.142 C 112.943 55.916 111.351 55.564 109.998 55.078 C 112.215 54.476 114.481 53.829 116.768 53.137 L 116.768 53.137 L 116.768 53.137 Z " fill-rule="evenodd" fill="rgb(0,0,0)"/>
            
            </g>
            <path d=" M 1 180.595 C 106.371 163.118 181.263 162.975 306.577 180.595 C 195.737 171.341 93.886 171.346 1 180.595 Z " fill="rgb(0,0,0)"/>
            
            </g></svg>